<?xml version="1.0" encoding="UTF-8"?>
<svg xmlns="http://www.w3.org/2000/svg" viewBox="0 0 632 220" width="632" height="220">
  <!-- Generated by Text to SVG Generator - League Spartan 200px -->
  <!-- All text converted to outlined paths - works in any cutting software -->
  <path d="M33.50 102.80L33.50 87.90L49.60 87.90L49.60 54.20L66.90 54.20L66.90 87.90L88 87.90L88 102.80L66.90 102.80L66.90 143.40Q66.90 150.60 69.45 154Q72 157.40 76.30 157.40L76.30 157.40Q80.10 157.40 82.20 156Q84.30 154.60 84.70 154.10L84.70 154.10L91.60 166.90Q91 167.40 88.40 168.80Q85.80 170.20 81.70 171.30Q77.60 172.40 72.10 172.40L72.10 172.40Q62.50 172.40 56.05 166.55Q49.60 160.70 49.60 148L49.60 148L49.60 102.80L33.50 102.80Z" fill="#0c0a0a"/>
  <path d="M134.20 85.50L134.20 85.50Q142.30 85.50 149.95 88.90Q157.60 92.30 162.55 99.65Q167.50 107 167.50 118.80L167.50 118.80L167.50 170L149.90 170L149.90 122.20Q149.90 110 144.35 104.45Q138.80 98.90 129.80 98.90L129.80 98.90Q123.80 98.90 118.30 102.25Q112.80 105.60 109.25 111.45Q105.70 117.30 105.70 124.70L105.70 124.70L105.70 170L88.10 170L88.10 32.40L105.70 32.40L105.70 102.50Q106.60 99.10 110.55 95.10Q114.50 91.10 120.70 88.30Q126.90 85.50 134.20 85.50Z" fill="#0c0a0a"/>
  <path d="M255 170L238 170L238 154Q237.20 156.50 233.35 160.90Q229.50 165.30 222.85 168.85Q216.20 172.40 207.20 172.40L207.20 172.40Q195.80 172.40 186.55 167Q177.30 161.60 171.85 151.85Q166.40 142.10 166.40 129L166.40 129Q166.40 115.90 171.85 106.15Q177.30 96.40 186.55 90.95Q195.80 85.50 207.20 85.50L207.20 85.50Q216.10 85.50 222.65 88.70Q229.20 91.90 233.15 96.10Q237.10 100.30 237.80 103.30L237.80 103.30L237.80 87.90L255 87.90L255 170ZM183.60 129L183.60 129Q183.60 137.90 187.50 144.40Q191.40 150.90 197.65 154.45Q203.90 158 211 158L211 158Q218.60 158 224.60 154.40Q230.60 150.80 234.10 144.25Q237.60 137.70 237.60 129L237.60 129Q237.60 120.30 234.10 113.75Q230.60 107.20 224.60 103.55Q218.60 99.90 211 99.90L211 99.90Q203.90 99.90 197.65 103.50Q191.40 107.10 187.50 113.60Q183.60 120.10 183.60 129Z" fill="#0c0a0a"/>
  <path d="M277.40 32.40L277.40 170L259.90 170L259.90 32.40L277.40 32.40Z" fill="#0c0a0a"/>
  <path d="M301.50 32.40L301.50 170L284.00 170L284.00 32.40L301.50 32.40Z" fill="#0c0a0a"/>
  <path d="M326.80 170L309.40 170L309.40 87.90L326.80 87.90L326.80 170ZM318.30 59.80L318.30 59.80Q313.60 59.80 310.25 56.45Q306.90 53.10 306.90 48.40L306.90 48.40Q306.90 43.70 310.25 40.30Q313.60 36.90 318.30 36.90L318.30 36.90Q321.40 36.90 324.05 38.50Q326.70 40.10 328.30 42.65Q329.90 45.20 329.90 48.40L329.90 48.40Q329.90 53.10 326.50 56.45Q323.10 59.80 318.30 59.80Z" fill="#0c0a0a"/>
  <path d="M350.70 87.90L350.70 129.30Q350.70 142.20 356.25 149.85Q361.80 157.50 373.30 157.50L373.30 157.50Q384.90 157.50 390.40 149.85Q395.90 142.20 395.90 129.30L395.90 129.30L395.90 87.90L413.10 87.90L413.10 131.70Q413.10 143.70 408.45 152.90Q403.80 162.10 394.95 167.25Q386.10 172.40 373.30 172.40L373.30 172.40Q360.60 172.40 351.75 167.25Q342.90 162.10 338.25 152.90Q333.60 143.70 333.60 131.70L333.60 131.70L333.60 87.90L350.70 87.90Z" fill="#0c0a0a"/>
  <path d="M516.20 85.50L516.20 85.50Q525.30 85.50 531.80 89.45Q538.30 93.40 541.75 101.50Q545.20 109.60 545.20 122.20L545.20 122.20L545.20 170L528.00 170L528.00 125.70Q528.00 112.40 524.30 105.70Q520.60 99 510.80 99L510.80 99Q505.60 99 500.85 101.85Q496.10 104.70 493.05 110.60Q490.00 116.50 490.00 125.70L490.00 125.70L490.00 170L473.80 170L473.80 125.70Q473.80 112.40 469.20 105.70Q464.60 99 456.30 99L456.30 99Q451.00 99 446.35 101.75Q441.70 104.50 438.80 110.40Q435.90 116.30 435.90 125.70L435.90 125.70L435.90 170L418.60 170L418.60 87.90L435.90 87.90L435.90 100.50Q437.00 97.40 440.65 93.90Q444.30 90.40 450.05 87.95Q455.80 85.50 462.90 85.50L462.90 85.50Q470.30 85.50 475.30 88.50Q480.30 91.50 483.20 95.85Q486.10 100.20 487.20 104.20L487.20 104.20Q488.60 99.90 492.60 95.55Q496.60 91.20 502.70 88.35Q508.80 85.50 516.20 85.50Z" fill="#0c0a0a"/>
  <path d="M568.80 172.40L568.80 172.40Q563.30 172.40 559.35 168.45Q555.40 164.50 555.40 159L555.40 159Q555.40 153.30 559.35 149.35Q563.30 145.40 568.80 145.40L568.80 145.40Q574.50 145.40 578.40 149.35Q582.30 153.30 582.30 159L582.30 159Q582.30 164.50 578.40 168.45Q574.50 172.40 568.80 172.40Z" fill="#0c0a0a"/>
</svg>